<mxfile host="app.diagrams.net" modified="2021-08-10T03:37:42.427Z" agent="5.0 (Windows NT 10.0; Win64; x64) AppleWebKit/537.36 (KHTML, like Gecko) Chrome/92.0.4515.131 Safari/537.36 Edg/92.0.902.67" etag="L5wyJXA2M-E-x0EkEbId" version="14.9.5" type="github">
  <diagram id="p_AuhkS08W-NJMHdNWWe" name="Page-1">
    <mxGraphModel dx="1465" dy="941" grid="1" gridSize="10" guides="1" tooltips="1" connect="1" arrows="1" fold="1" page="0" pageScale="1" pageWidth="980" pageHeight="1390" math="0" shadow="1">
      <root>
        <mxCell id="0" />
        <mxCell id="1" parent="0" />
        <mxCell id="_l9vlkcQ-5JWNDTTZ1Og-11" value="" style="endArrow=none;dashed=1;html=1;strokeWidth=4;fontSize=15;fillColor=#d5e8d4;strokeColor=#82b366;" parent="1" edge="1">
          <mxGeometry width="50" height="50" relative="1" as="geometry">
            <mxPoint x="1599.5" y="900" as="sourcePoint" />
            <mxPoint x="1599.5" y="440" as="targetPoint" />
          </mxGeometry>
        </mxCell>
        <mxCell id="QOy7W9CVPE825VVzmBQF-8" style="edgeStyle=orthogonalEdgeStyle;rounded=0;orthogonalLoop=1;jettySize=auto;html=1;fontSize=15;" parent="1" source="QOy7W9CVPE825VVzmBQF-1" target="QOy7W9CVPE825VVzmBQF-2" edge="1">
          <mxGeometry relative="1" as="geometry" />
        </mxCell>
        <mxCell id="QOy7W9CVPE825VVzmBQF-9" value="需要提供：&lt;br style=&quot;font-size: 15px;&quot;&gt;1. 第三方服务端的登录接口地址&lt;br style=&quot;font-size: 15px;&quot;&gt;2. Http 请求方式&lt;br style=&quot;font-size: 15px;&quot;&gt;3. Http 请求参数（用户名/密码）" style="edgeLabel;html=1;align=left;verticalAlign=middle;resizable=0;points=[];fontSize=15;" parent="QOy7W9CVPE825VVzmBQF-8" vertex="1" connectable="0">
          <mxGeometry x="-0.1538" relative="1" as="geometry">
            <mxPoint x="-70" as="offset" />
          </mxGeometry>
        </mxCell>
        <mxCell id="QOy7W9CVPE825VVzmBQF-1" value="开发者模块" style="rounded=1;whiteSpace=wrap;html=1;fontSize=15;" parent="1" vertex="1">
          <mxGeometry x="265" y="360" width="120" height="60" as="geometry" />
        </mxCell>
        <mxCell id="QOy7W9CVPE825VVzmBQF-15" style="edgeStyle=orthogonalEdgeStyle;rounded=0;orthogonalLoop=1;jettySize=auto;html=1;entryX=0;entryY=0.5;entryDx=0;entryDy=0;fontSize=15;" parent="1" source="QOy7W9CVPE825VVzmBQF-2" target="QOy7W9CVPE825VVzmBQF-12" edge="1">
          <mxGeometry relative="1" as="geometry" />
        </mxCell>
        <mxCell id="QOy7W9CVPE825VVzmBQF-2" value="Http-api 模块" style="rounded=1;whiteSpace=wrap;html=1;fontSize=15;" parent="1" vertex="1">
          <mxGeometry x="244" y="562.5" width="170" height="50" as="geometry" />
        </mxCell>
        <mxCell id="QOy7W9CVPE825VVzmBQF-3" value="需要登录的第三方服务端" style="rounded=1;whiteSpace=wrap;html=1;fontSize=15;" parent="1" vertex="1">
          <mxGeometry x="660" y="557.5" width="120" height="60" as="geometry" />
        </mxCell>
        <mxCell id="QOy7W9CVPE825VVzmBQF-5" style="edgeStyle=orthogonalEdgeStyle;rounded=0;orthogonalLoop=1;jettySize=auto;html=1;fontSize=15;" parent="1" source="QOy7W9CVPE825VVzmBQF-4" target="QOy7W9CVPE825VVzmBQF-1" edge="1">
          <mxGeometry relative="1" as="geometry" />
        </mxCell>
        <mxCell id="QOy7W9CVPE825VVzmBQF-6" value="请求登录，需要提供：&lt;br style=&quot;font-size: 15px;&quot;&gt;用户名/密码" style="edgeLabel;html=1;align=left;verticalAlign=middle;resizable=0;points=[];fontSize=15;" parent="QOy7W9CVPE825VVzmBQF-5" vertex="1" connectable="0">
          <mxGeometry x="-0.3538" y="1" relative="1" as="geometry">
            <mxPoint x="-57" y="4" as="offset" />
          </mxGeometry>
        </mxCell>
        <mxCell id="QOy7W9CVPE825VVzmBQF-4" value="用户浏览器" style="rounded=1;whiteSpace=wrap;html=1;fontSize=15;" parent="1" vertex="1">
          <mxGeometry x="265" y="220" width="120" height="60" as="geometry" />
        </mxCell>
        <mxCell id="QOy7W9CVPE825VVzmBQF-17" style="edgeStyle=orthogonalEdgeStyle;rounded=0;orthogonalLoop=1;jettySize=auto;html=1;exitX=1;exitY=0.5;exitDx=0;exitDy=0;entryX=0;entryY=0.5;entryDx=0;entryDy=0;fontSize=15;" parent="1" source="QOy7W9CVPE825VVzmBQF-12" target="QOy7W9CVPE825VVzmBQF-3" edge="1">
          <mxGeometry relative="1" as="geometry" />
        </mxCell>
        <mxCell id="QOy7W9CVPE825VVzmBQF-12" value="&lt;font style=&quot;font-size: 15px;&quot;&gt;封装开发者模块的认证信息，向第三方服务器发送认证请求，相当于一个代理&lt;/font&gt;" style="ellipse;whiteSpace=wrap;html=1;align=left;fontSize=15;" parent="1" vertex="1">
          <mxGeometry x="440" y="525" width="170" height="125" as="geometry" />
        </mxCell>
        <mxCell id="v0BDX90ooCMmWKhYHN8K-5" style="edgeStyle=orthogonalEdgeStyle;rounded=0;orthogonalLoop=1;jettySize=auto;html=1;entryX=0.5;entryY=0;entryDx=0;entryDy=0;fontSize=15;" parent="1" source="v0BDX90ooCMmWKhYHN8K-1" target="v0BDX90ooCMmWKhYHN8K-2" edge="1">
          <mxGeometry relative="1" as="geometry" />
        </mxCell>
        <mxCell id="v0BDX90ooCMmWKhYHN8K-6" value="认证信息传递" style="edgeLabel;html=1;align=center;verticalAlign=middle;resizable=0;points=[];fontSize=15;" parent="v0BDX90ooCMmWKhYHN8K-5" vertex="1" connectable="0">
          <mxGeometry x="-0.3989" y="-1" relative="1" as="geometry">
            <mxPoint x="1" y="14" as="offset" />
          </mxGeometry>
        </mxCell>
        <mxCell id="v0BDX90ooCMmWKhYHN8K-1" value="用户浏览器" style="rounded=1;whiteSpace=wrap;html=1;fontSize=15;" parent="1" vertex="1">
          <mxGeometry x="165" y="780" width="120" height="60" as="geometry" />
        </mxCell>
        <mxCell id="CJJ12qJy6CefM_HKYV5f-1" value="&lt;font style=&quot;font-size: 15px&quot;&gt;认证信息传递&lt;/font&gt;" style="edgeStyle=orthogonalEdgeStyle;rounded=0;orthogonalLoop=1;jettySize=auto;html=1;" parent="1" source="v0BDX90ooCMmWKhYHN8K-2" target="v0BDX90ooCMmWKhYHN8K-3" edge="1">
          <mxGeometry relative="1" as="geometry" />
        </mxCell>
        <mxCell id="v0BDX90ooCMmWKhYHN8K-2" value="开发者模块" style="rounded=1;whiteSpace=wrap;html=1;fontSize=15;" parent="1" vertex="1">
          <mxGeometry x="165" y="940" width="120" height="60" as="geometry" />
        </mxCell>
        <mxCell id="v0BDX90ooCMmWKhYHN8K-10" style="edgeStyle=orthogonalEdgeStyle;rounded=0;orthogonalLoop=1;jettySize=auto;html=1;fontSize=15;" parent="1" source="v0BDX90ooCMmWKhYHN8K-3" target="v0BDX90ooCMmWKhYHN8K-4" edge="1">
          <mxGeometry relative="1" as="geometry" />
        </mxCell>
        <mxCell id="v0BDX90ooCMmWKhYHN8K-12" value="解析认证信息&lt;br&gt;根据配置向第三方发起认证" style="edgeLabel;html=1;align=center;verticalAlign=middle;resizable=0;points=[];fontSize=15;" parent="v0BDX90ooCMmWKhYHN8K-10" vertex="1" connectable="0">
          <mxGeometry x="-0.1989" y="1" relative="1" as="geometry">
            <mxPoint x="-1" y="12" as="offset" />
          </mxGeometry>
        </mxCell>
        <mxCell id="v0BDX90ooCMmWKhYHN8K-3" value="Http-api 模块" style="rounded=1;whiteSpace=wrap;html=1;fontSize=15;" parent="1" vertex="1">
          <mxGeometry x="140" y="1110" width="170" height="50" as="geometry" />
        </mxCell>
        <mxCell id="v0BDX90ooCMmWKhYHN8K-13" style="edgeStyle=orthogonalEdgeStyle;rounded=0;orthogonalLoop=1;jettySize=auto;html=1;exitX=1;exitY=0.5;exitDx=0;exitDy=0;entryX=0.5;entryY=1;entryDx=0;entryDy=0;fontSize=15;" parent="1" source="v0BDX90ooCMmWKhYHN8K-4" target="v0BDX90ooCMmWKhYHN8K-14" edge="1">
          <mxGeometry relative="1" as="geometry">
            <mxPoint x="725" y="1180" as="targetPoint" />
          </mxGeometry>
        </mxCell>
        <mxCell id="v0BDX90ooCMmWKhYHN8K-15" value="认证结果" style="edgeLabel;html=1;align=center;verticalAlign=middle;resizable=0;points=[];fontSize=15;" parent="v0BDX90ooCMmWKhYHN8K-13" vertex="1" connectable="0">
          <mxGeometry x="-0.1925" relative="1" as="geometry">
            <mxPoint x="-47" as="offset" />
          </mxGeometry>
        </mxCell>
        <mxCell id="v0BDX90ooCMmWKhYHN8K-4" value="需要登录的第三方服务端" style="rounded=1;whiteSpace=wrap;html=1;fontSize=15;" parent="1" vertex="1">
          <mxGeometry x="165" y="1280" width="120" height="60" as="geometry" />
        </mxCell>
        <mxCell id="v0BDX90ooCMmWKhYHN8K-16" value="" style="edgeStyle=orthogonalEdgeStyle;rounded=0;orthogonalLoop=1;jettySize=auto;html=1;fontSize=15;" parent="1" source="v0BDX90ooCMmWKhYHN8K-14" target="v0BDX90ooCMmWKhYHN8K-17" edge="1">
          <mxGeometry x="-0.4167" relative="1" as="geometry">
            <mxPoint x="525" y="1040" as="targetPoint" />
            <mxPoint as="offset" />
          </mxGeometry>
        </mxCell>
        <mxCell id="v0BDX90ooCMmWKhYHN8K-18" value="处理认证结果" style="edgeLabel;html=1;align=center;verticalAlign=middle;resizable=0;points=[];fontSize=15;" parent="v0BDX90ooCMmWKhYHN8K-16" vertex="1" connectable="0">
          <mxGeometry x="0.6651" y="-1" relative="1" as="geometry">
            <mxPoint x="-1" y="40" as="offset" />
          </mxGeometry>
        </mxCell>
        <mxCell id="v0BDX90ooCMmWKhYHN8K-14" value="Http-api 模块" style="rounded=1;whiteSpace=wrap;html=1;fontSize=15;" parent="1" vertex="1">
          <mxGeometry x="440" y="1100" width="170" height="50" as="geometry" />
        </mxCell>
        <mxCell id="v0BDX90ooCMmWKhYHN8K-19" style="edgeStyle=orthogonalEdgeStyle;rounded=0;orthogonalLoop=1;jettySize=auto;html=1;entryX=0.5;entryY=1;entryDx=0;entryDy=0;fontSize=15;" parent="1" source="v0BDX90ooCMmWKhYHN8K-17" target="v0BDX90ooCMmWKhYHN8K-21" edge="1">
          <mxGeometry relative="1" as="geometry">
            <mxPoint x="510" y="790" as="targetPoint" />
          </mxGeometry>
        </mxCell>
        <mxCell id="v0BDX90ooCMmWKhYHN8K-20" value="处理结果，返回给用户" style="edgeLabel;html=1;align=center;verticalAlign=middle;resizable=0;points=[];fontSize=15;" parent="v0BDX90ooCMmWKhYHN8K-19" vertex="1" connectable="0">
          <mxGeometry x="0.1827" relative="1" as="geometry">
            <mxPoint y="8" as="offset" />
          </mxGeometry>
        </mxCell>
        <mxCell id="v0BDX90ooCMmWKhYHN8K-17" value="开发者模块" style="rounded=1;whiteSpace=wrap;html=1;fontSize=15;" parent="1" vertex="1">
          <mxGeometry x="465" y="940" width="120" height="60" as="geometry" />
        </mxCell>
        <mxCell id="v0BDX90ooCMmWKhYHN8K-21" value="用户浏览器" style="rounded=1;whiteSpace=wrap;html=1;fontSize=15;" parent="1" vertex="1">
          <mxGeometry x="465" y="780" width="120" height="60" as="geometry" />
        </mxCell>
        <mxCell id="_l9vlkcQ-5JWNDTTZ1Og-5" value="提供登陆第三方系&lt;br style=&quot;font-size: 15px;&quot;&gt;统需要的认证信息" style="edgeStyle=orthogonalEdgeStyle;rounded=0;orthogonalLoop=1;jettySize=auto;html=1;entryX=0;entryY=0.5;entryDx=0;entryDy=0;fontSize=15;" parent="1" source="_l9vlkcQ-5JWNDTTZ1Og-3" target="_l9vlkcQ-5JWNDTTZ1Og-4" edge="1">
          <mxGeometry x="0.0435" relative="1" as="geometry">
            <mxPoint as="offset" />
          </mxGeometry>
        </mxCell>
        <mxCell id="_l9vlkcQ-5JWNDTTZ1Og-3" value="用户" style="shape=umlActor;verticalLabelPosition=bottom;verticalAlign=top;html=1;outlineConnect=0;fontSize=15;" parent="1" vertex="1">
          <mxGeometry x="1050" y="610" width="30" height="60" as="geometry" />
        </mxCell>
        <mxCell id="_l9vlkcQ-5JWNDTTZ1Og-7" value="1. 配置认证策略&lt;br style=&quot;font-size: 15px;&quot;&gt;2. 传递认证信息" style="edgeStyle=orthogonalEdgeStyle;rounded=0;orthogonalLoop=1;jettySize=auto;html=1;entryX=0;entryY=0.5;entryDx=0;entryDy=0;fontSize=15;" parent="1" source="_l9vlkcQ-5JWNDTTZ1Og-4" target="_l9vlkcQ-5JWNDTTZ1Og-6" edge="1">
          <mxGeometry relative="1" as="geometry" />
        </mxCell>
        <mxCell id="_l9vlkcQ-5JWNDTTZ1Og-4" value="业务系统" style="rounded=1;whiteSpace=wrap;html=1;fontSize=15;" parent="1" vertex="1">
          <mxGeometry x="1280" y="610" width="120" height="60" as="geometry" />
        </mxCell>
        <mxCell id="_l9vlkcQ-5JWNDTTZ1Og-10" value="代理业务系统&lt;br style=&quot;font-size: 15px&quot;&gt;发起认证请求" style="edgeStyle=orthogonalEdgeStyle;rounded=0;orthogonalLoop=1;jettySize=auto;html=1;fontSize=15;" parent="1" source="_l9vlkcQ-5JWNDTTZ1Og-6" target="_l9vlkcQ-5JWNDTTZ1Og-9" edge="1">
          <mxGeometry relative="1" as="geometry" />
        </mxCell>
        <mxCell id="_l9vlkcQ-5JWNDTTZ1Og-6" value="HttpApi 模块" style="rounded=1;whiteSpace=wrap;html=1;fontSize=15;fillColor=#fff2cc;strokeColor=#d6b656;" parent="1" vertex="1">
          <mxGeometry x="1540" y="612.5" width="120" height="60" as="geometry" />
        </mxCell>
        <mxCell id="_l9vlkcQ-5JWNDTTZ1Og-9" value="第三方系统" style="whiteSpace=wrap;html=1;rounded=1;fontSize=15;" parent="1" vertex="1">
          <mxGeometry x="1820" y="612.5" width="120" height="60" as="geometry" />
        </mxCell>
        <mxCell id="_l9vlkcQ-5JWNDTTZ1Og-14" value="开发者需要关注的" style="text;html=1;strokeColor=none;fillColor=none;align=center;verticalAlign=middle;whiteSpace=wrap;rounded=0;fontSize=20;fontColor=#CC6600;" parent="1" vertex="1">
          <mxGeometry x="1235" y="480" width="210" height="60" as="geometry" />
        </mxCell>
        <mxCell id="_l9vlkcQ-5JWNDTTZ1Og-15" value="HttpApi 模块代理完成的" style="text;html=1;strokeColor=none;fillColor=none;align=center;verticalAlign=middle;whiteSpace=wrap;rounded=0;fontSize=20;fontColor=#CC6600;" parent="1" vertex="1">
          <mxGeometry x="1680" y="480" width="280" height="60" as="geometry" />
        </mxCell>
        <mxCell id="8oIE3dojvbBHtXdzvIme-2" value="提供登陆第三方系&lt;br style=&quot;font-size: 15px;&quot;&gt;统需要的认证信息" style="edgeStyle=orthogonalEdgeStyle;rounded=0;orthogonalLoop=1;jettySize=auto;html=1;entryX=0;entryY=0.5;entryDx=0;entryDy=0;fontSize=15;" parent="1" source="8oIE3dojvbBHtXdzvIme-3" target="8oIE3dojvbBHtXdzvIme-5" edge="1">
          <mxGeometry x="0.0435" relative="1" as="geometry">
            <mxPoint as="offset" />
          </mxGeometry>
        </mxCell>
        <mxCell id="8oIE3dojvbBHtXdzvIme-3" value="用户" style="shape=umlActor;verticalLabelPosition=bottom;verticalAlign=top;html=1;outlineConnect=0;fontSize=15;" parent="1" vertex="1">
          <mxGeometry x="1080" y="1170" width="30" height="60" as="geometry" />
        </mxCell>
        <mxCell id="8oIE3dojvbBHtXdzvIme-4" value="向第三方系统暴露的 HTTP API &lt;br&gt;接口发起调用" style="edgeStyle=orthogonalEdgeStyle;rounded=0;orthogonalLoop=1;jettySize=auto;html=1;fontSize=15;" parent="1" source="8oIE3dojvbBHtXdzvIme-5" target="8oIE3dojvbBHtXdzvIme-8" edge="1">
          <mxGeometry relative="1" as="geometry">
            <mxPoint x="1570" y="1202.5" as="targetPoint" />
          </mxGeometry>
        </mxCell>
        <mxCell id="8oIE3dojvbBHtXdzvIme-5" value="业务系统" style="rounded=1;whiteSpace=wrap;html=1;fontSize=15;" parent="1" vertex="1">
          <mxGeometry x="1340" y="1170" width="120" height="60" as="geometry" />
        </mxCell>
        <mxCell id="8oIE3dojvbBHtXdzvIme-8" value="第三方系统" style="whiteSpace=wrap;html=1;rounded=1;fontSize=15;" parent="1" vertex="1">
          <mxGeometry x="1760" y="1170" width="120" height="60" as="geometry" />
        </mxCell>
        <mxCell id="tA3pxPAsf6T6LrTLqbjA-2" value=":Controller" style="shape=umlLifeline;perimeter=lifelinePerimeter;whiteSpace=wrap;html=1;container=1;collapsible=0;recursiveResize=0;outlineConnect=0;fontSize=18;" vertex="1" parent="1">
          <mxGeometry x="630" y="1730" width="100" height="1000" as="geometry" />
        </mxCell>
        <mxCell id="tA3pxPAsf6T6LrTLqbjA-9" value="" style="html=1;points=[];perimeter=orthogonalPerimeter;fontSize=18;" vertex="1" parent="tA3pxPAsf6T6LrTLqbjA-2">
          <mxGeometry x="45" y="70" width="10" height="820" as="geometry" />
        </mxCell>
        <mxCell id="tA3pxPAsf6T6LrTLqbjA-3" value=":HttpApiStrategy" style="shape=umlLifeline;perimeter=lifelinePerimeter;whiteSpace=wrap;html=1;container=1;collapsible=0;recursiveResize=0;outlineConnect=0;fontSize=18;" vertex="1" parent="1">
          <mxGeometry x="870" y="1730" width="150" height="960" as="geometry" />
        </mxCell>
        <mxCell id="tA3pxPAsf6T6LrTLqbjA-13" value="2: checkAuthenticateConfig" style="html=1;verticalAlign=bottom;endArrow=block;fontSize=18;edgeStyle=elbowEdgeStyle;" edge="1" parent="tA3pxPAsf6T6LrTLqbjA-3">
          <mxGeometry x="0.1805" y="70" width="80" relative="1" as="geometry">
            <mxPoint x="79" y="179" as="sourcePoint" />
            <mxPoint x="79" y="261" as="targetPoint" />
            <Array as="points">
              <mxPoint x="130" y="240" />
              <mxPoint x="130" y="250" />
              <mxPoint x="140" y="210" />
              <mxPoint x="150" y="270" />
            </Array>
            <mxPoint as="offset" />
          </mxGeometry>
        </mxCell>
        <mxCell id="tA3pxPAsf6T6LrTLqbjA-15" value="3:&amp;nbsp;login()" style="html=1;verticalAlign=bottom;endArrow=block;fontSize=18;edgeStyle=elbowEdgeStyle;" edge="1" parent="tA3pxPAsf6T6LrTLqbjA-3">
          <mxGeometry x="0.0945" y="20" width="80" relative="1" as="geometry">
            <mxPoint x="80" y="270" as="sourcePoint" />
            <mxPoint x="80" y="371" as="targetPoint" />
            <Array as="points">
              <mxPoint x="130" y="371" />
              <mxPoint x="170" y="320" />
            </Array>
            <mxPoint as="offset" />
          </mxGeometry>
        </mxCell>
        <mxCell id="tA3pxPAsf6T6LrTLqbjA-11" value="" style="html=1;points=[];perimeter=orthogonalPerimeter;fontSize=18;" vertex="1" parent="tA3pxPAsf6T6LrTLqbjA-3">
          <mxGeometry x="70" y="130" width="10" height="750" as="geometry" />
        </mxCell>
        <mxCell id="tA3pxPAsf6T6LrTLqbjA-5" value=":HttpRequest" style="shape=umlLifeline;perimeter=lifelinePerimeter;whiteSpace=wrap;html=1;container=1;collapsible=0;recursiveResize=0;outlineConnect=0;fontSize=18;" vertex="1" parent="1">
          <mxGeometry x="1210" y="1730" width="140" height="940" as="geometry" />
        </mxCell>
        <mxCell id="tA3pxPAsf6T6LrTLqbjA-20" value="" style="html=1;points=[];perimeter=orthogonalPerimeter;fontSize=18;" vertex="1" parent="tA3pxPAsf6T6LrTLqbjA-5">
          <mxGeometry x="65" y="620" width="10" height="30" as="geometry" />
        </mxCell>
        <mxCell id="tA3pxPAsf6T6LrTLqbjA-23" value="" style="html=1;points=[];perimeter=orthogonalPerimeter;fontSize=18;" vertex="1" parent="tA3pxPAsf6T6LrTLqbjA-5">
          <mxGeometry x="65" y="700" width="10" height="50" as="geometry" />
        </mxCell>
        <mxCell id="tA3pxPAsf6T6LrTLqbjA-12" value="1:&amp;nbsp;authenticate()" style="html=1;verticalAlign=bottom;endArrow=block;entryX=0.165;entryY=0.002;entryDx=0;entryDy=0;entryPerimeter=0;fontSize=18;" edge="1" parent="1" source="tA3pxPAsf6T6LrTLqbjA-9" target="tA3pxPAsf6T6LrTLqbjA-11">
          <mxGeometry width="80" relative="1" as="geometry">
            <mxPoint x="790" y="1910" as="sourcePoint" />
            <mxPoint x="870" y="1910" as="targetPoint" />
          </mxGeometry>
        </mxCell>
        <mxCell id="tA3pxPAsf6T6LrTLqbjA-16" value="4:&amp;nbsp;getJapUser()" style="html=1;verticalAlign=bottom;endArrow=block;fontSize=18;edgeStyle=elbowEdgeStyle;" edge="1" parent="1">
          <mxGeometry x="0.1579" y="30" width="80" relative="1" as="geometry">
            <mxPoint x="950" y="2120" as="sourcePoint" />
            <mxPoint x="950" y="2210" as="targetPoint" />
            <Array as="points">
              <mxPoint x="1000" y="2170" />
            </Array>
            <mxPoint as="offset" />
          </mxGeometry>
        </mxCell>
        <mxCell id="tA3pxPAsf6T6LrTLqbjA-21" value="6: get() 发送预请求" style="html=1;verticalAlign=bottom;endArrow=block;fontSize=18;entryX=0.104;entryY=0.042;entryDx=0;entryDy=0;entryPerimeter=0;" edge="1" parent="1" source="tA3pxPAsf6T6LrTLqbjA-3" target="tA3pxPAsf6T6LrTLqbjA-20">
          <mxGeometry x="-0.0902" y="-10" width="80" relative="1" as="geometry">
            <mxPoint x="1080" y="2360" as="sourcePoint" />
            <mxPoint x="1160" y="2360" as="targetPoint" />
            <mxPoint as="offset" />
          </mxGeometry>
        </mxCell>
        <mxCell id="tA3pxPAsf6T6LrTLqbjA-22" value="8: get() 发送认证请求" style="html=1;verticalAlign=bottom;endArrow=block;fontSize=18;entryX=0.325;entryY=-0.011;entryDx=0;entryDy=0;entryPerimeter=0;" edge="1" parent="1" source="tA3pxPAsf6T6LrTLqbjA-3" target="tA3pxPAsf6T6LrTLqbjA-23">
          <mxGeometry width="80" relative="1" as="geometry">
            <mxPoint x="1170" y="2430" as="sourcePoint" />
            <mxPoint x="1260" y="2430" as="targetPoint" />
            <Array as="points">
              <mxPoint x="970" y="2429" />
            </Array>
          </mxGeometry>
        </mxCell>
        <mxCell id="tA3pxPAsf6T6LrTLqbjA-24" value="9: 第三方服务端返回认证结果" style="html=1;verticalAlign=bottom;endArrow=open;dashed=1;endSize=8;fontSize=18;exitX=0.251;exitY=0.985;exitDx=0;exitDy=0;exitPerimeter=0;" edge="1" parent="1" source="tA3pxPAsf6T6LrTLqbjA-23" target="tA3pxPAsf6T6LrTLqbjA-3">
          <mxGeometry x="-0.0535" relative="1" as="geometry">
            <mxPoint x="1160" y="2510" as="sourcePoint" />
            <mxPoint x="950" y="2499" as="targetPoint" />
            <mxPoint as="offset" />
          </mxGeometry>
        </mxCell>
        <mxCell id="tA3pxPAsf6T6LrTLqbjA-25" value="7: 第三方服务端返回信息" style="html=1;verticalAlign=bottom;endArrow=open;dashed=1;endSize=8;fontSize=18;exitX=-0.263;exitY=1.011;exitDx=0;exitDy=0;exitPerimeter=0;" edge="1" parent="1" source="tA3pxPAsf6T6LrTLqbjA-20" target="tA3pxPAsf6T6LrTLqbjA-3">
          <mxGeometry x="-0.0473" y="9" relative="1" as="geometry">
            <mxPoint x="810" y="2260" as="sourcePoint" />
            <mxPoint x="730" y="2260" as="targetPoint" />
            <mxPoint as="offset" />
          </mxGeometry>
        </mxCell>
        <mxCell id="tA3pxPAsf6T6LrTLqbjA-26" value="11: 返回认证结果" style="html=1;verticalAlign=bottom;endArrow=open;dashed=1;endSize=8;fontSize=18;exitX=-0.084;exitY=1;exitDx=0;exitDy=0;exitPerimeter=0;" edge="1" parent="1" source="tA3pxPAsf6T6LrTLqbjA-11" target="tA3pxPAsf6T6LrTLqbjA-2">
          <mxGeometry x="0.1524" y="11" relative="1" as="geometry">
            <mxPoint x="850" y="2530" as="sourcePoint" />
            <mxPoint x="710" y="2609" as="targetPoint" />
            <mxPoint as="offset" />
          </mxGeometry>
        </mxCell>
        <mxCell id="tA3pxPAsf6T6LrTLqbjA-30" value="5:&amp;nbsp;doDigestAuth()" style="html=1;verticalAlign=bottom;endArrow=block;fontSize=18;edgeStyle=elbowEdgeStyle;" edge="1" parent="1">
          <mxGeometry x="0.1579" y="30" width="80" relative="1" as="geometry">
            <mxPoint x="950" y="2240" as="sourcePoint" />
            <mxPoint x="950" y="2330" as="targetPoint" />
            <Array as="points">
              <mxPoint x="1000" y="2290" />
            </Array>
            <mxPoint as="offset" />
          </mxGeometry>
        </mxCell>
        <mxCell id="tA3pxPAsf6T6LrTLqbjA-32" value="10: loginSuccess()&amp;nbsp;&lt;span style=&quot;color: rgba(0 , 0 , 0 , 0) ; font-family: monospace ; font-size: 0px&quot;&gt;%3CmxGraphModel%3E%3Croot%3E%3CmxCell%20id%3D%220%22%2F%3E%3CmxCell%20id%3D%221%22%20parent%3D%220%22%2F%3E%3CmxCell%20id%3D%222%22%20value%3D%225%3A%26amp%3Bnbsp%3BdoDigestAuth()%22%20style%3D%22html%3D1%3BverticalAlign%3Dbottom%3BendArrow%3Dblock%3BfontSize%3D18%3BedgeStyle%3DelbowEdgeStyle%3B%22%20edge%3D%221%22%20parent%3D%221%22%3E%3CmxGeometry%20x%3D%220.1579%22%20y%3D%2230%22%20width%3D%2280%22%20relative%3D%221%22%20as%3D%22geometry%22%3E%3CmxPoint%20x%3D%22950%22%20y%3D%222240%22%20as%3D%22sourcePoint%22%2F%3E%3CmxPoint%20x%3D%22950%22%20y%3D%222330%22%20as%3D%22targetPoint%22%2F%3E%3CArray%20as%3D%22points%22%3E%3CmxPoint%20x%3D%221000%22%20y%3D%222290%22%2F%3E%3C%2FArray%3E%3CmxPoint%20as%3D%22offset%22%2F%3E%3C%2FmxGeometry%3E%3C%2FmxCell%3E%3C%2Froot%3E%3C%2FmxGraphModel%3Elog&lt;/span&gt;" style="html=1;verticalAlign=bottom;endArrow=block;fontSize=18;edgeStyle=elbowEdgeStyle;" edge="1" parent="1">
          <mxGeometry x="0.1579" y="30" width="80" relative="1" as="geometry">
            <mxPoint x="950" y="2520" as="sourcePoint" />
            <mxPoint x="950" y="2610" as="targetPoint" />
            <Array as="points">
              <mxPoint x="1000" y="2570" />
            </Array>
            <mxPoint as="offset" />
          </mxGeometry>
        </mxCell>
      </root>
    </mxGraphModel>
  </diagram>
</mxfile>
